Coordinates
version=1
nRows=53
nColumns=11
inDegrees=yes

Units are S.I. units (second, meters, Newtons, ...)
If the header above contains a line with 'inDegrees', this indicates whether rotational values are in degrees (yes) or radians (no).

endheader
time	pelvis_tilt	pelvis_tx	pelvis_ty	hip_flexion_l	hip_flexion_r	knee_angle_l	knee_angle_r	ankle_angle_l	ankle_angle_r	lumbar_extension
      6.31000000	     46.66675825	      0.65490386	      1.11502538	     23.67943665	     18.53352782	    -64.52903634	    -58.89880073	    -15.05270207	    -28.02212014	    -46.61593949
      6.32000000	     46.65728997	      0.65488201	      1.11503260	     23.84451232	     18.53792339	    -64.25106231	    -58.74018323	    -14.35046465	    -28.11054097	    -46.63046370
      6.33000000	     46.65866516	      0.65485946	      1.11499073	     24.02111590	     18.54560961	    -64.00423413	    -58.57541571	    -13.83960769	    -28.17404687	    -46.65311812
      6.34000000	     46.64105035	      0.65482963	      1.11494136	     24.20578776	     18.56641886	    -63.78053221	    -58.37353012	    -13.14962252	    -28.18198968	    -46.65794925
      6.35000000	     46.63946111	      0.65481230	      1.11489909	     24.37975079	     18.56697152	    -63.51903989	    -58.19293326	    -12.77366853	    -28.31561406	    -46.67872751
      6.36000000	     46.62313774	      0.65481524	      1.11490042	     24.54384091	     18.59280186	    -63.29716991	    -58.01105568	    -12.38327996	    -28.29200036	    -46.68319002
      6.37000000	     46.61168150	      0.65481752	      1.11485400	     24.68217223	     18.60838471	    -63.07679650	    -57.81384762	    -11.84216802	    -28.25463075	    -46.68834598
      6.38000000	     46.67910607	      0.65481444	      1.11482181	     24.74270938	     18.52909822	    -62.87797173	    -57.60820342	    -11.65640934	    -28.21460318	    -46.77501700
      6.39000000	     46.71876494	      0.65482452	      1.11482278	     24.80006653	     18.48522926	    -62.65237096	    -57.40968121	    -11.26096104	    -28.28869471	    -46.82618721
      6.40000000	     46.69373401	      0.65481018	      1.11476371	     24.92604735	     18.51894432	    -62.43376251	    -57.22205477	    -11.06037391	    -28.24109166	    -46.82041039
      6.41000000	     46.70291146	      0.65481510	      1.11469190	     24.99905906	     18.52322742	    -62.22069402	    -57.04394665	    -11.02939705	    -28.23271469	    -46.84294659
      6.42000000	     46.72270376	      0.65482858	      1.11460027	     25.06800573	     18.52923238	    -62.04845539	    -56.88353918	    -11.00031963	    -28.22562639	    -46.87126961
      6.43000000	     46.77526084	      0.65482350	      1.11460506	     25.05170441	     18.46964596	    -61.82826498	    -56.68646848	    -10.77008231	    -28.23220915	    -46.93825143
      6.44000000	     46.77152690	      0.65481628	      1.11457236	     25.06990356	     18.47134247	    -61.60491892	    -56.49458217	    -10.75258891	    -28.21524521	    -46.94713054
      6.45000000	     46.88725028	      0.65483467	      1.11461366	     24.95733964	     18.33922477	    -61.44515098	    -56.31631853	    -10.74627489	    -28.09449914	    -47.06940285
      6.46000000	     46.89872949	      0.65486636	      1.11454238	     24.94591149	     18.35078250	    -61.26989001	    -56.18272038	    -10.75385459	    -28.07626147	    -47.08111547
      6.47000000	     46.96371368	      0.65478095	      1.11458286	     24.83091959	     18.25067960	    -61.03556818	    -55.95025787	    -10.94905617	    -28.11078750	    -47.17082594
      6.48000000	     47.00531330	      0.65479217	      1.11459359	     24.74035015	     18.21431366	    -60.87048075	    -55.78709866	    -11.24184967	    -28.03359698	    -47.21828923
      6.49000000	     47.07973458	      0.65485088	      1.11456344	     24.60398367	     18.15478394	    -60.71124826	    -55.67335021	    -11.29876946	    -27.98019149	    -47.28763611
      6.50000000	     47.16101414	      0.65487881	      1.11461995	     24.43272993	     18.06371881	    -60.55095502	    -55.54355197	    -11.55427451	    -27.93693885	    -47.37429902
      6.51000000	     47.23235974	      0.65491050	      1.11467201	     24.24807616	     17.98771934	    -60.38252163	    -55.42421986	    -11.95733062	    -27.86872621	    -47.44900612
      6.52000000	     47.28499226	      0.65497068	      1.11467965	     24.07914562	     17.96096436	    -60.26569462	    -55.36931929	    -12.25502240	    -27.78047287	    -47.49956654
      6.53000000	     47.32346398	      0.65502055	      1.11467813	     23.91826558	     17.93667595	    -60.14317227	    -55.26800332	    -12.45338398	    -27.79873071	    -47.53954606
      6.54000000	     47.38786011	      0.65507933	      1.11464334	     23.74067796	     17.88806984	    -60.06567939	    -55.20650190	    -12.76435749	    -27.73989299	    -47.60386276
      6.55000000	     47.48414169	      0.65518433	      1.11470832	     23.50871205	     17.78533550	    -60.00257234	    -55.14925232	    -13.23239456	    -27.59009639	    -47.69070492
      6.56000000	     47.56179492	      0.65529756	      1.11475323	     23.27871383	     17.73053988	    -59.92469967	    -55.14884732	    -13.58331392	    -27.55107889	    -47.75892141
      6.57000000	     47.61341093	      0.65538741	      1.11478844	     23.05669221	     17.67865685	    -59.85636181	    -55.11025922	    -14.04151166	    -27.52429211	    -47.80531084
      6.58000000	     47.68318607	      0.65548713	      1.11478592	     22.82347177	     17.59551035	    -59.82823054	    -55.06916447	    -14.37123654	    -27.47393152	    -47.86677352
      6.59000000	     47.72379295	      0.65556804	      1.11478755	     22.65114712	     17.52563158	    -59.85140173	    -55.01177191	    -15.04284229	    -27.37549418	    -47.90526423
      6.60000000	     47.78833097	      0.65569934	      1.11487175	     22.40634841	     17.45080209	    -59.85055935	    -54.98608066	    -15.43009455	    -27.31004231	    -47.95747182
      6.61000000	     47.85443903	      0.65582090	      1.11485587	     22.18522376	     17.40897845	    -59.89342469	    -55.03319559	    -15.86838473	    -27.24446895	    -48.01390129
      6.62000000	     47.89592369	      0.65591601	      1.11484697	     22.00223501	     17.36900567	    -59.96240695	    -55.05449013	    -16.38881307	    -27.23423451	    -48.05021043
      6.63000000	     47.93458680	      0.65601478	      1.11489618	     21.83253852	     17.31363077	    -60.04825237	    -55.08648650	    -17.02940233	    -27.16249380	    -48.07881527
      6.64000000	     47.99377025	      0.65611714	      1.11492728	     21.60462916	     17.22903601	    -60.11863773	    -55.05978256	    -17.52431835	    -27.18983439	    -48.12429979
      6.65000000	     48.02222317	      0.65616177	      1.11495769	     21.44334619	     17.20799876	    -60.21822138	    -55.15546055	    -18.09836291	    -27.06662136	    -48.14847450
      6.66000000	     48.02511024	      0.65622991	      1.11500138	     21.30420291	     17.19329350	    -60.32418332	    -55.19222638	    -18.81086590	    -27.07326120	    -48.14396770
      6.67000000	     48.05101608	      0.65630038	      1.11503801	     21.16670819	     17.15939296	    -60.51482132	    -55.29306001	    -19.40682841	    -26.97085937	    -48.16174943
      6.68000000	     48.07582692	      0.65636340	      1.11507211	     21.02216029	     17.11794207	    -60.67451412	    -55.35520592	    -19.98594100	    -26.85535235	    -48.17875203
      6.69000000	     48.08354930	      0.65638745	      1.11506290	     20.91895545	     17.10954240	    -60.86262468	    -55.44138118	    -20.58743319	    -26.87173096	    -48.18020689
      6.70000000	     48.31232033	      0.65661231	      1.11510121	     20.35693126	     16.85640591	    -60.07794955	    -55.56538589	    -22.85839385	    -26.85921027	    -48.36070521
      6.71000000	     48.27949680	      0.65663054	      1.11513940	     20.35352836	     16.87535665	    -60.32370251	    -55.61468570	    -23.41299740	    -26.87817896	    -48.32116889
      6.72000000	     48.28779340	      0.65662412	      1.11517546	     20.29581674	     16.86325017	    -60.56337724	    -55.71810441	    -23.95422070	    -26.86086214	    -48.32262279
      6.73000000	     48.27652379	      0.65662906	      1.11522285	     20.28141695	     16.86100324	    -60.85577814	    -55.81107882	    -24.46874569	    -26.91143496	    -48.30609753
      6.74000000	     48.24603208	      0.65661794	      1.11526358	     20.31610777	     16.88893086	    -61.16379759	    -55.95062707	    -24.97880064	    -26.70889373	    -48.27044607
      6.75000000	     48.25771179	      0.65659532	      1.11535944	     20.29513460	     16.84851409	    -61.45609863	    -56.03810165	    -25.43808813	    -26.67135231	    -48.27635415
      6.76000000	     48.22900725	      0.65660409	      1.11537389	     20.31599762	     16.87568196	    -61.79357403	    -56.16914824	    -25.71992372	    -26.85731116	    -48.23999559
      6.77000000	     48.21410864	      0.65658676	      1.11542803	     20.35321532	     16.88017819	    -62.14863423	    -56.32452373	    -25.94502355	    -26.77871639	    -48.21655944
      6.78000000	     48.28066360	      0.65654167	      1.11566603	     20.29288053	     16.76964609	    -62.46264498	    -56.38024884	    -26.16977342	    -26.76237281	    -48.27573597
      6.79000000	     48.20620269	      0.65656265	      1.11554622	     20.42382517	     16.86479109	    -62.81846395	    -56.57213082	    -26.44500728	    -26.65884189	    -48.19197560
      6.80000000	     48.23054613	      0.65655276	      1.11570742	     20.42681789	     16.82805290	    -63.16385492	    -56.69256113	    -26.47842428	    -26.69714372	    -48.21042504
      6.81000000	     48.13235736	      0.65650682	      1.11562070	     20.58538631	     16.88497536	    -63.48643438	    -56.74446581	    -26.64208821	    -26.82683663	    -48.10919252
      6.82000000	     48.14783058	      0.65647651	      1.11571217	     20.62892794	     16.84680892	    -63.82925174	    -56.87511089	    -26.67288145	    -26.82757469	    -48.12165143
      6.83000000	     48.07279597	      0.65649135	      1.11569996	     20.76480116	     16.91720303	    -64.13869228	    -56.98911956	    -26.78991167	    -26.77373917	    -48.03118757
